<?xml version="1.0" standalone="no"?>
<!DOCTYPE svg PUBLIC "-//W3C//DTD SVG 20010904//EN"
 "http://www.w3.org/TR/2001/REC-SVG-20010904/DTD/svg10.dtd">
<svg version="1.0" xmlns="http://www.w3.org/2000/svg"
 width="267.000000pt" height="267.000000pt" viewBox="0 0 267.000000 267.000000"
 preserveAspectRatio="xMidYMid meet">
<metadata>
Created by potrace 1.11, written by Peter Selinger 2001-2013
</metadata>
<g transform="translate(0.000000,267.000000) scale(0.100000,-0.100000)"
fill="#000000" stroke="none">
<path d="M1500 2650 c-35 -18 -85 -79 -107 -132 -11 -24 -17 -27 -78 -30 -37
-1 -69 1 -72 5 -3 4 -10 3 -17 -2 -7 -6 -37 -12 -67 -15 -30 -2 -54 -5 -54 -6
0 -1 -7 -3 -16 -5 -9 -1 -27 -6 -39 -10 -17 -6 -21 -4 -15 6 5 9 1 8 -11 -2
-10 -9 -27 -15 -36 -14 -10 2 -18 0 -18 -5 0 -4 -19 -11 -42 -15 -54 -10 -46
-8 -93 -29 -105 -47 -154 -72 -203 -103 -29 -18 -58 -30 -64 -27 -7 4 -8 2 -4
-5 4 -6 0 -14 -11 -18 -10 -4 -20 -9 -23 -13 -3 -3 -27 -24 -54 -45 -205 -165
-368 -421 -426 -670 -49 -210 -42 -432 22 -630 59 -186 160 -347 308 -495 139
-139 333 -261 500 -315 30 -10 60 -20 65 -24 6 -3 15 -6 20 -7 6 -1 24 -4 40
-8 147 -29 196 -34 335 -34 192 0 357 27 485 79 17 7 36 13 42 15 25 5 175 84
240 127 226 148 405 376 495 627 11 30 22 66 24 79 3 14 7 28 9 32 3 4 7 24
11 45 3 22 9 58 14 82 25 138 -6 430 -60 557 -87 203 -160 316 -296 453 -56
56 -105 102 -110 102 -4 0 -17 9 -28 19 -12 11 -47 35 -78 54 -32 19 -54 38
-50 41 4 4 3 7 -3 5 -16 -4 -65 20 -65 31 0 6 -4 9 -9 6 -5 -4 -39 7 -74 24
-36 16 -72 30 -81 30 -12 0 -15 10 -12 52 5 67 -8 100 -50 138 -71 62 -178 84
-244 50z"/>
</g>
</svg>
